<?xml version="1.0" encoding="UTF-8"?>
<svg version="1.1" xmlns="http://www.w3.org/2000/svg" width="512" height="512">
<path d="M0 0 C0.71808838 -0.00067474 1.43617676 -0.00134949 2.17602539 -0.00204468 C12.95102913 0.01405583 23.15670688 0.46813769 33.625 3.25 C34.27742676 3.42160645 34.92985352 3.59321289 35.60205078 3.77001953 C70.90639551 13.28713872 100.13077357 35.22785587 118.625 66.875 C124.57499666 77.39210633 129.29340223 88.12917027 132.4375 99.8125 C132.63239014 100.53074951 132.82728027 101.24899902 133.02807617 101.98901367 C136.29873729 114.99237813 136.91546444 127.92148394 136.8203125 141.24609375 C136.81656965 142.81649086 136.81372872 144.38689034 136.81173706 145.95729065 C136.80420054 150.03588625 136.78464146 154.11433315 136.7623291 158.19287109 C136.741652 162.37660716 136.73268922 166.5603679 136.72265625 170.74414062 C136.70138317 178.9128277 136.66737242 187.08139521 136.625 195.25 C137.58790451 195.37801498 138.55080902 195.50602997 139.54289246 195.63792419 C140.80515152 195.81082474 142.06741058 195.98372528 143.36791992 196.16186523 C144.61957443 196.33113022 145.87122894 196.5003952 147.16081238 196.67478943 C157.73489438 198.43056146 167.21088403 204.7417476 173.625 213.25 C179.30257466 222.54503584 181.93462774 231.37149588 181.89242554 242.17289734 C181.89695665 243.03627348 181.90148776 243.89964963 181.90615618 244.78918868 C181.91875173 247.66379513 181.91718294 250.53821092 181.91552734 253.4128418 C181.92151568 255.48157493 181.92832193 257.55030583 181.93588257 259.61903381 C181.9535202 265.22670413 181.95823705 270.83431336 181.95951414 276.44200873 C181.96093774 279.94981311 181.96521134 283.45760206 181.97050858 286.9654026 C181.98900256 299.21547045 181.99718011 311.46549483 181.99560547 323.71557617 C181.99440475 335.11379869 182.01549511 346.51183165 182.0470928 357.91000623 C182.07329321 367.71242175 182.08397116 377.51477551 182.08269465 387.31722575 C182.08218606 393.16438358 182.08781218 399.01137293 182.10905075 404.85849571 C182.12849612 410.36204958 182.12851451 415.86527535 182.11401749 421.36884117 C182.111936 423.38070152 182.11659061 425.39258275 182.1287384 427.4044075 C182.22271852 444.05661421 180.69950614 457.54714628 168.74609375 470.24609375 C158.61108337 479.76686108 147.35187016 482.55543635 133.85444641 482.51742554 C132.67270204 482.52195665 131.49095767 482.52648776 130.27340287 482.53115618 C127.00588679 482.54160388 123.73850961 482.54312987 120.47098219 482.54076743 C116.94185612 482.54035837 113.41276256 482.551407 109.88365173 482.56088257 C102.97369535 482.57747496 96.06377308 482.58299134 89.15379844 482.58410732 C83.53430723 482.58505875 77.91482724 482.58917378 72.29533958 482.59550858 C56.34959564 482.61311715 40.40387859 482.62234819 24.45812485 482.62084763 C23.59900664 482.62076772 22.73988843 482.6206878 21.85473633 482.62060547 C20.56447826 482.62048283 20.56447826 482.62048283 19.24815436 482.62035771 C5.31482864 482.61954519 -8.61838889 482.63867514 -22.55168333 482.6668822 C-36.87148773 482.69564202 -51.19123941 482.70942075 -65.51107341 482.70769465 C-73.54522161 482.70703176 -81.57925641 482.71247959 -89.61337852 482.73405075 C-96.45524109 482.75230351 -103.29693887 482.75657652 -110.13881531 482.7430319 C-113.6259498 482.73652243 -117.11276855 482.73631102 -120.59987259 482.7537384 C-124.39003744 482.76921982 -128.17938049 482.75986203 -131.9695282 482.74447632 C-133.05817427 482.75476344 -134.14682034 482.76505057 -135.26845568 482.77564943 C-148.25919799 482.659619 -158.91551131 478.25783996 -168.375 469.37109375 C-177.13969726 460.02082404 -180.69169243 448.93666792 -180.64242554 436.32710266 C-180.64695665 435.46372652 -180.65148776 434.60035037 -180.65615618 433.71081132 C-180.66875173 430.83620487 -180.66718294 427.96178908 -180.66552734 425.0871582 C-180.67151568 423.01842507 -180.67832193 420.94969417 -180.68588257 418.88096619 C-180.7035202 413.27329587 -180.70823705 407.66568664 -180.70951414 402.05799127 C-180.71093774 398.55018689 -180.71521134 395.04239794 -180.72050858 391.5345974 C-180.73900256 379.28452955 -180.74718011 367.03450517 -180.74560547 354.78442383 C-180.74440475 343.38620131 -180.76549511 331.98816835 -180.7970928 320.58999377 C-180.82329321 310.78757825 -180.83397116 300.98522449 -180.83269465 291.18277425 C-180.83218606 285.33561642 -180.83781218 279.48862707 -180.85905075 273.64150429 C-180.87849612 268.13795042 -180.87851451 262.63472465 -180.86401749 257.13115883 C-180.861936 255.11929848 -180.86659061 253.10741725 -180.8787384 251.0955925 C-180.96258808 236.2383847 -180.12535103 223.30152877 -170.375 211.25 C-169.89675781 210.63640625 -169.41851562 210.0228125 -168.92578125 209.390625 C-161.93978488 201.43679538 -152.35582826 197.53679173 -142.11352539 196.1574707 C-140.85190079 195.98520462 -139.59027618 195.81293854 -138.29042053 195.63545227 C-137.32833176 195.50825302 -136.36624298 195.38105377 -135.375 195.25 C-135.38166183 194.40491882 -135.38832367 193.55983765 -135.39518738 192.68914795 C-135.45590048 184.63096225 -135.50127493 176.57285598 -135.53043652 168.51449203 C-135.54593389 164.37398075 -135.56687106 160.23366215 -135.60131836 156.09326172 C-135.96049292 111.71911739 -128.53037508 72.51778803 -96.5078125 39.3515625 C-70.6733941 13.38756708 -36.433023 0.03062733 0 0 Z M-74.375 62.25 C-75.33986328 63.10464844 -75.33986328 63.10464844 -76.32421875 63.9765625 C-93.99741169 80.04310153 -101.13656267 104.58093871 -104.375 127.25 C-104.375 149.69 -104.375 172.13 -104.375 195.25 C-35.075 195.25 34.225 195.25 105.625 195.25 C108.52312932 120.03699533 108.52312932 120.03699533 74.375 60.5625 C53.49181221 39.89875026 26.59127397 30.79003408 -2.31420898 30.88647461 C-30.73206811 31.33723374 -54.27308964 42.66043219 -74.375 62.25 Z M-146.875 231.75 C-149.57323638 236.24706063 -149.52337323 240.22040274 -149.52217102 245.30828857 C-149.52584771 246.13895757 -149.5295244 246.96962656 -149.5333125 247.82546735 C-149.54435745 250.61900266 -149.54819455 253.41250079 -149.55200195 256.20605469 C-149.55826596 258.20496743 -149.56491271 260.20387901 -149.57191467 262.20278931 C-149.58932944 267.64092071 -149.59987763 273.07904332 -149.6081202 278.5171957 C-149.6132691 281.91386251 -149.61934487 285.31052659 -149.62563133 288.70719147 C-149.64468431 299.33198534 -149.65891551 309.95677225 -149.6672433 320.58157992 C-149.67701864 332.85101124 -149.70334555 345.12026229 -149.74374419 357.38963008 C-149.77388976 366.86997785 -149.78871068 376.35027391 -149.79202431 385.83066869 C-149.79437646 391.49439948 -149.80335851 397.1579377 -149.82848549 402.82161713 C-149.851744 408.15024941 -149.85600828 413.47856204 -149.84572411 418.8072319 C-149.84522811 420.76194954 -149.85156738 422.71668279 -149.86528015 424.67135239 C-149.88296965 427.34254388 -149.87590757 430.01258453 -149.86274719 432.68377686 C-149.87371644 433.45509406 -149.88468568 434.22641126 -149.89598733 435.02110171 C-149.83071762 440.51824711 -148.68185044 443.80406715 -145.375 448.25 C-140.13748566 452.18978943 -134.35073454 451.67304629 -128.07069397 451.63768005 C-126.92711172 451.64306559 -125.78352947 451.64845113 -124.60529321 451.65399987 C-120.77068845 451.66831524 -116.93642714 451.66116664 -113.10180664 451.65405273 C-110.35368453 451.65811071 -107.60558 451.66661716 -104.85746765 451.67485046 C-98.16627113 451.69204098 -91.47516851 451.69287798 -84.78395564 451.68763756 C-79.3450755 451.68359516 -73.9062231 451.68504025 -68.46734428 451.69038582 C-67.30594356 451.69150845 -67.30594356 451.69150845 -66.1210802 451.69265376 C-64.54812952 451.69418525 -62.97517884 451.6957236 -61.40222817 451.69726873 C-46.65357842 451.71099464 -31.90498173 451.70555541 -17.1563332 451.69408352 C-3.66575013 451.68415061 9.8246958 451.69709261 23.31525772 451.72101771 C37.1705778 451.74540441 51.02583399 451.75501767 64.8811751 451.74836498 C72.65863156 451.74487186 80.43598254 451.74711099 88.21342278 451.76461601 C94.83404665 451.77933262 101.45449076 451.7799806 108.07511108 451.7625451 C111.45232592 451.75402802 114.82895564 451.75406703 118.20619583 451.76719666 C121.86900524 451.78035034 125.53093891 451.76890738 129.19371033 451.75120544 C130.25869324 451.76081045 131.32367616 451.77041546 132.42093128 451.78031152 C138.672087 451.71806375 142.64823555 451.17322319 147.625 447.25 C150.85854877 442.64831034 151.05326411 438.28350807 151.00595093 432.82421875 C151.0106309 431.99028091 151.01531087 431.15634308 151.02013266 430.2971344 C151.0320724 427.51042651 151.02262944 424.72421131 151.01318359 421.9375 C151.01724975 419.93652052 151.02259187 417.93554329 151.02911377 415.93457031 C151.04278793 410.50488783 151.03748824 405.07537639 151.02797651 399.64569092 C151.02038048 393.96300801 151.02742537 388.28033973 151.03213501 382.59765625 C151.03759271 373.05466076 151.03040052 363.51173492 151.01611328 353.96875 C150.99978678 342.93626829 151.00507527 331.9039529 151.0215925 320.87147522 C151.0352069 311.39871294 151.03712723 301.92600072 151.02927649 292.45323181 C151.02459974 286.79577915 151.02397523 281.13840467 151.03388596 275.48095703 C151.04255262 270.16215225 151.03653903 264.84356189 151.01920319 259.52478027 C151.01523677 257.5728796 151.01637504 255.62096088 151.02299118 253.66906738 C151.03119054 251.00439514 151.02090454 248.34040975 151.00595093 245.67578125 C151.01264309 244.90359756 151.01933526 244.13141388 151.02623022 243.33583069 C150.97432487 238.56637371 150.17871651 235.28738987 147.625 231.25 C142.5204535 227.14416912 138.20536252 226.12833497 131.78697586 226.11857224 C130.83508731 226.11473109 129.88319876 226.11088995 128.90246511 226.1069324 C127.86483045 226.10779888 126.8271958 226.10866537 125.75811768 226.10955811 C124.6494694 226.10658698 123.54082113 226.10361586 122.39857745 226.1005547 C118.67619246 226.09186915 114.95383964 226.09035957 111.23144531 226.08886719 C108.56554004 226.08423894 105.89963769 226.0792348 103.23373413 226.07382202 C95.98572486 226.06025251 88.73772113 226.0542162 81.48970127 226.04981136 C76.96231787 226.04704674 72.43493659 226.04280899 67.90755463 226.03830719 C55.36752583 226.02611658 42.82749874 226.01581669 30.28746414 226.0124321 C29.48521354 226.01221253 28.68296295 226.01199297 27.85640173 226.01176675 C26.6501824 226.01143933 26.6501824 226.01143933 25.419595 226.0111053 C23.79014667 226.01066184 22.16069833 226.01021527 20.53125 226.00976562 C19.72299108 226.0095442 18.91473217 226.00932277 18.08198056 226.00909463 C4.9871702 226.00514713 -8.1075845 225.98769368 -21.20237336 225.9644061 C-34.65311493 225.94067896 -48.10382858 225.92822964 -61.55459142 225.92706418 C-69.10408006 225.92614821 -76.65349615 225.9204156 -84.20296478 225.90224457 C-90.63174879 225.88682522 -97.06043782 225.88173393 -103.4892368 225.88998267 C-106.76734994 225.89388266 -110.04523244 225.89135101 -113.32332993 225.87892532 C-116.88244517 225.86622639 -120.44107121 225.87207205 -124.00018311 225.88250732 C-125.02889487 225.87445092 -126.05760664 225.86639452 -127.11749148 225.85809398 C-134.37926756 225.90782171 -141.53416766 226.40916766 -146.875 231.75 Z " fill="#000000" transform="translate(255.375,14.75)"/>
<path d="M0 0 C9.68777746 6.87296868 15.8265437 15.72578885 19.125 27.0625 C21.25438133 42.36313518 19.34456238 55.70398415 9.875 68.375 C4.33036233 73.79362318 -1.95259342 77.64924076 -8.875 81.0625 C-8.88958252 82.04532959 -8.90416504 83.02815918 -8.91918945 84.04077148 C-8.9776459 87.72569163 -9.05487058 91.41003056 -9.13745117 95.09448242 C-9.17047979 96.68195078 -9.19857869 98.26953035 -9.22143555 99.85717773 C-9.52984315 120.71734315 -9.52984315 120.71734315 -15.375 126.5625 C-20.37302261 129.56131357 -25.18988302 129.68363569 -30.875 129.0625 C-34.67988944 127.76361381 -37.27728039 125.83953549 -39.75 122.625 C-41.97066829 117.56681111 -41.94319235 112.78881171 -41.8046875 107.34765625 C-41.79378977 105.84181604 -41.78607526 104.33595003 -41.78125 102.83007812 C-41.77338635 100.47319397 -41.74992014 98.12255902 -41.67285156 95.7668457 C-41.51729073 90.67116288 -41.53675174 86.00635992 -42.875 81.0625 C-46.18414565 77.87201699 -49.58698121 76.55203463 -53.875 75.0625 C-63.89988111 68.12219769 -68.85124583 57.49480906 -71.625 45.9375 C-72.80644743 32.35085458 -70.16729766 20.11889689 -61.875 9.0625 C-45.79213797 -8.80734669 -20.51280977 -12.95017517 0 0 Z M-36.875 28.0625 C-39.5634419 31.58528594 -40.60981727 34.64278783 -40.875 39.0625 C-39.90487474 44.59221401 -38.22893848 47.51859659 -33.875 51.0625 C-29.3528846 53.82601497 -24.86465575 53.16022426 -19.875 52.0625 C-15.68444914 50.24052136 -13.7969069 48.19459983 -11.875 44.0625 C-10.14025015 38.61042903 -11.37615536 34.06018928 -13.875 29.0625 C-18.58127611 24.47101111 -21.94414724 23.70750819 -28.33203125 23.78125 C-32.06680418 24.19431244 -34.11441828 25.57124332 -36.875 28.0625 Z " fill="#000000" transform="translate(281.875,292.9375)"/>
</svg>
